<svg xmlns="http://www.w3.org/2000/svg" viewBox="0 0 512 512" width="100%" height="100%">
  <rect width="512" height="512" rx="110" fill="#161616"/>
  
  <path d="M90 340 c40 20, 110 30, 166 -10 c56 40, 126 30, 166 10 v-160 c-40-20, -110-30, -166 10 c-56-40, -126-30, -166-10 z" fill="#090909" opacity="0.5"/>
  
  <path d="M90 330 c40 20, 110 30, 166 -10 c56 40, 126 30, 166 10 v-160 c-40-20, -110-30, -166 10 c-56-40, -126-30, -166-10 z" fill="#cfa785"/>
  
  <path d="M100 320 c35 15, 100 25, 156 -10 v-160 c-56 35, -121 25, -156 10 z" fill="#e3cbb5"/>
  
  <path d="M412 320 c-35 15, -100 25, -156 -10 v-160 c-56 35, -121 25, -156 10 z" transform="translate(512, 0) scale(-1, 1)" fill="#ebd9c8"/>
  
  <path d="M251 150 h10 v190 l-5-8 l-5 8 z" fill="#161616"/>
  
  <path d="M120 190 h40 M120 220 h60 M120 250 h50 M312 190 h60 M292 220 h60 M322 250 h50" stroke="#b09379" stroke-width="4" stroke-linecap="round"/>
</svg>
